<svg xmlns="http://www.w3.org/2000/svg" width="1120" height="602" viewBox="0 0 1120 602">
<style>text{font-family:Inter,Segoe UI,Arial,sans-serif}.title{font-size:22px;font-weight:700}.label{font-size:12px;fill:#475569}.value{font-size:12px;fill:#0f172a}.track{fill:#e2e8f0}.bar{fill:#2563eb}</style>
<rect width="100%" height="100%" fill="#f8fafc"/>
<text x="24" y="38" class="title">Before vs Owledge Comparison</text>
<text x="24" y="62" class="label">Higher reduction/prevention is better. tokens/sec is shown in the model matrix.</text>
<text x="24" y="100" class="label">gemma4:latest - Pollution reduction %</text>
<rect x="320" y="86" width="560" height="18" rx="4" class="track"/>
<rect x="320" y="86" width="552" height="18" rx="4" class="bar"/>
<text x="896" y="100" class="value">88.36</text>
<text x="24" y="134" class="label">gemma4:latest - Token reduction %</text>
<rect x="320" y="120" width="560" height="18" rx="4" class="track"/>
<rect x="320" y="120" width="545" height="18" rx="4" class="bar"/>
<text x="896" y="134" class="value">87.15</text>
<text x="24" y="168" class="label">gemma4:latest - Owledge tokens/sec</text>
<rect x="320" y="154" width="560" height="18" rx="4" class="track"/>
<rect x="320" y="154" width="466" height="18" rx="4" class="bar"/>
<text x="896" y="168" class="value">74.5858</text>
<text x="24" y="202" class="label">gemma4:latest - Privacy prevented</text>
<rect x="320" y="188" width="560" height="18" rx="4" class="track"/>
<rect x="320" y="188" width="6" height="18" rx="4" class="bar"/>
<text x="896" y="202" class="value">1.0</text>
<text x="24" y="236" class="label">gemma4:latest - Stale prevented</text>
<rect x="320" y="222" width="560" height="18" rx="4" class="track"/>
<rect x="320" y="222" width="6" height="18" rx="4" class="bar"/>
<text x="896" y="236" class="value">1.0</text>
<text x="24" y="270" class="label">qwen3.5:4b - Pollution reduction %</text>
<rect x="320" y="256" width="560" height="18" rx="4" class="track"/>
<rect x="320" y="256" width="552" height="18" rx="4" class="bar"/>
<text x="896" y="270" class="value">88.36</text>
<text x="24" y="304" class="label">qwen3.5:4b - Token reduction %</text>
<rect x="320" y="290" width="560" height="18" rx="4" class="track"/>
<rect x="320" y="290" width="485" height="18" rx="4" class="bar"/>
<text x="896" y="304" class="value">77.66</text>
<text x="24" y="338" class="label">qwen3.5:4b - Owledge tokens/sec</text>
<rect x="320" y="324" width="560" height="18" rx="4" class="track"/>
<rect x="320" y="324" width="235" height="18" rx="4" class="bar"/>
<text x="896" y="338" class="value">37.6034</text>
<text x="24" y="372" class="label">qwen3.5:4b - Privacy prevented</text>
<rect x="320" y="358" width="560" height="18" rx="4" class="track"/>
<rect x="320" y="358" width="6" height="18" rx="4" class="bar"/>
<text x="896" y="372" class="value">1.0</text>
<text x="24" y="406" class="label">qwen3.5:4b - Stale prevented</text>
<rect x="320" y="392" width="560" height="18" rx="4" class="track"/>
<rect x="320" y="392" width="6" height="18" rx="4" class="bar"/>
<text x="896" y="406" class="value">1.0</text>
<text x="24" y="440" class="label">glm-5.1:cloud - Pollution reduction %</text>
<rect x="320" y="426" width="560" height="18" rx="4" class="track"/>
<rect x="320" y="426" width="552" height="18" rx="4" class="bar"/>
<text x="896" y="440" class="value">88.36</text>
<text x="24" y="474" class="label">glm-5.1:cloud - Token reduction %</text>
<rect x="320" y="460" width="560" height="18" rx="4" class="track"/>
<rect x="320" y="460" width="536" height="18" rx="4" class="bar"/>
<text x="896" y="474" class="value">85.8</text>
<text x="24" y="508" class="label">glm-5.1:cloud - Owledge tokens/sec</text>
<rect x="320" y="494" width="560" height="18" rx="4" class="track"/>
<rect x="320" y="494" width="560" height="18" rx="4" class="bar"/>
<text x="896" y="508" class="value">89.4848</text>
<text x="24" y="542" class="label">glm-5.1:cloud - Privacy prevented</text>
<rect x="320" y="528" width="560" height="18" rx="4" class="track"/>
<rect x="320" y="528" width="6" height="18" rx="4" class="bar"/>
<text x="896" y="542" class="value">1.0</text>
<text x="24" y="576" class="label">glm-5.1:cloud - Stale prevented</text>
<rect x="320" y="562" width="560" height="18" rx="4" class="track"/>
<rect x="320" y="562" width="6" height="18" rx="4" class="bar"/>
<text x="896" y="576" class="value">1.0</text>
</svg>