<svg xmlns="http://www.w3.org/2000/svg" width="980" height="420" viewBox="0 0 980 420" role="img" aria-label="Prompt tokens by project size">
<rect width="100%" height="100%" fill="#ffffff"/>
<text x="58" y="30" font-family="system-ui" font-size="18" font-weight="700" fill="#17202a">Prompt tokens by project size</text>
<text x="58" y="52" font-family="system-ui" font-size="12" fill="#52616f">Unit: prompt tokens</text>
<line x1="58" y1="362" x2="922" y2="362" stroke="#aab4c0"/>
<line x1="58" y1="58" x2="58" y2="362" stroke="#aab4c0"/>
<polyline points="58.0,58.0" fill="none" stroke="#8b1e3f" stroke-width="2.5"/>
<circle cx="58.0" cy="58.0" r="3.5" fill="#8b1e3f"/>
<rect x="58" y="386" width="10" height="10" fill="#8b1e3f"/>
<text x="72" y="395" font-family="system-ui" font-size="10" fill="#17202a">full_vault</text>
<polyline points="58.0,58.0" fill="none" stroke="#b85c38" stroke-width="2.5"/>
<circle cx="58.0" cy="58.0" r="3.5" fill="#b85c38"/>
<rect x="203" y="386" width="10" height="10" fill="#b85c38"/>
<text x="217" y="395" font-family="system-ui" font-size="10" fill="#17202a">naive_paste</text>
<polyline points="58.0,58.0" fill="none" stroke="#d99b2b" stroke-width="2.5"/>
<circle cx="58.0" cy="58.0" r="3.5" fill="#d99b2b"/>
<rect x="348" y="386" width="10" height="10" fill="#d99b2b"/>
<text x="362" y="395" font-family="system-ui" font-size="10" fill="#17202a">keyword_search</text>
<polyline points="58.0,329.7" fill="none" stroke="#397097" stroke-width="2.5"/>
<circle cx="58.0" cy="329.7" r="3.5" fill="#397097"/>
<rect x="493" y="386" width="10" height="10" fill="#397097"/>
<text x="507" y="395" font-family="system-ui" font-size="10" fill="#17202a">metadata_scan</text>
<polyline points="58.0,249.8" fill="none" stroke="#26734d" stroke-width="2.5"/>
<circle cx="58.0" cy="249.8" r="3.5" fill="#26734d"/>
<rect x="638" y="386" width="10" height="10" fill="#26734d"/>
<text x="652" y="395" font-family="system-ui" font-size="10" fill="#17202a">owledge_context_pack</text>
<polyline points="58.0,282.8" fill="none" stroke="#4b5563" stroke-width="2.5"/>
<circle cx="58.0" cy="282.8" r="3.5" fill="#4b5563"/>
<rect x="783" y="386" width="10" height="10" fill="#4b5563"/>
<text x="797" y="395" font-family="system-ui" font-size="10" fill="#17202a">oracle</text>
</svg>